# This file uses centimeters as units for non-parametric coordinates.

mtllib track.mtl
v -5.500000 -1.022099 1.000000
v -1.833333 -1.500000 1.000000
v 1.833334 -1.500000 1.000000
v 5.500000 -1.022099 1.000000
v -5.500000 -0.022099 1.000000
v -1.833333 -0.500000 1.000000
v 1.833334 -0.500000 1.000000
v 5.500000 -0.022099 1.000000
v -5.500000 -0.022099 -5.000000
v -1.833333 -0.500000 -5.000000
v 1.833334 -0.500000 -5.000000
v 5.500000 -0.022099 -5.000000
v -5.500000 -1.022099 -5.000000
v -1.833333 -1.500000 -5.000000
v 1.833334 -1.500000 -5.000000
v 5.500000 -1.022099 -5.000000
v 6.000000 -1.022099 -5.000000
v 6.000000 -1.022099 1.000000
v 6.000000 -0.022099 -5.000000
v 6.000000 -0.022099 1.000000
v -6.000001 -1.022099 -5.000000
v -6.000001 -1.022099 1.000000
v -6.000001 -0.022099 1.000000
v -6.000001 -0.022099 -5.000000
v 5.500000 0.470357 1.000000
v 5.500000 0.470357 -5.000000
v 6.000000 0.470357 1.000000
v 6.000000 0.470357 -5.000000
v -5.500000 0.470357 1.000000
v -5.500000 0.470357 -5.000000
v -6.000001 0.470357 -5.000000
v -6.000001 0.470357 1.000000
vt 0.375000 0.000000
vt 0.458333 0.000000
vt 0.458333 0.250000
vt 0.375000 0.250000
vt 0.541667 0.000000
vt 0.541667 0.250000
vt 0.625000 0.000000
vt 0.625000 0.250000
vt 0.458333 0.500000
vt 0.375000 0.500000
vt 0.541667 0.500000
vt 0.625000 0.500000
vt 0.458333 0.750000
vt 0.375000 0.750000
vt 0.541667 0.750000
vt 0.625000 0.750000
vt 0.458333 1.000000
vt 0.375000 1.000000
vt 0.541667 1.000000
vt 0.625000 1.000000
vt 0.625000 0.000000
vt 0.875000 0.000000
vt 0.875000 0.250000
vt 0.625000 0.250000
vt 0.125000 0.000000
vt 0.375000 0.000000
vt 0.375000 0.250000
vt 0.125000 0.250000
vt 0.875000 0.000000
vt 0.875000 0.250000
vt 0.875000 0.250000
vt 0.625000 0.250000
vt 0.625000 0.250000
vt 0.875000 0.250000
vt 0.125000 0.000000
vt 0.375000 0.250000
vt 0.125000 0.250000
vt 0.125000 0.250000
vt 0.375000 0.250000
vt 0.125000 0.250000
vn 0.000000 0.000000 1.000000
vn 0.000000 0.000000 1.000000
vn 0.000000 0.000000 1.000000
vn 0.000000 0.000000 1.000000
vn 0.000000 0.000000 1.000000
vn 0.000000 0.000000 1.000000
vn 0.000000 0.000000 1.000000
vn 0.000000 0.000000 1.000000
vn 0.000000 0.000000 1.000000
vn 0.000000 0.000000 1.000000
vn 0.000000 0.000000 1.000000
vn 0.000000 0.000000 1.000000
vn 0.129243 0.991613 0.000000
vn 0.065030 0.997883 0.000000
vn 0.129243 0.991613 0.000000
vn 0.065030 0.997883 0.000000
vn 0.065030 0.997883 0.000000
vn -0.065030 0.997883 0.000000
vn 0.065030 0.997883 0.000000
vn -0.065030 0.997883 0.000000
vn -0.065030 0.997883 0.000000
vn -0.129243 0.991613 0.000000
vn -0.065030 0.997883 0.000000
vn -0.129243 0.991613 0.000000
vn 0.000000 0.000000 -1.000000
vn 0.000000 0.000000 -1.000000
vn 0.000000 0.000000 -1.000000
vn 0.000000 0.000000 -1.000000
vn 0.000000 0.000000 -1.000000
vn 0.000000 0.000000 -1.000000
vn 0.000000 0.000000 -1.000000
vn 0.000000 0.000000 -1.000000
vn 0.000000 0.000000 -1.000000
vn 0.000000 0.000000 -1.000000
vn 0.000000 0.000000 -1.000000
vn 0.000000 0.000000 -1.000000
vn -0.129243 -0.991613 0.000000
vn -0.065030 -0.997883 0.000000
vn -0.129243 -0.991613 0.000000
vn -0.065030 -0.997883 0.000000
vn -0.065030 -0.997883 0.000000
vn 0.065030 -0.997883 0.000000
vn -0.065030 -0.997883 0.000000
vn 0.065030 -0.997883 0.000000
vn 0.065030 -0.997883 0.000000
vn 0.129243 -0.991613 0.000000
vn 0.065030 -0.997883 0.000000
vn 0.129243 -0.991613 0.000000
vn 1.000000 0.000000 0.000000
vn 1.000000 0.000000 0.000000
vn 1.000000 0.000000 0.000000
vn 1.000000 0.000000 0.000000
vn -1.000000 0.000000 0.000000
vn -1.000000 0.000000 0.000000
vn -1.000000 0.000000 0.000000
vn -1.000000 0.000000 0.000000
vn 0.000000 -1.000000 0.000000
vn 0.000000 -1.000000 0.000000
vn 0.000000 -1.000000 0.000000
vn 0.000000 -1.000000 0.000000
vn 0.000000 0.000000 -1.000000
vn 0.000000 0.000000 -1.000000
vn 0.000000 0.000000 -1.000000
vn 0.000000 0.000000 -1.000000
vn 0.000000 1.000000 0.000000
vn 0.000000 1.000000 0.000000
vn 0.000000 1.000000 0.000000
vn 0.000000 1.000000 0.000000
vn 0.000000 0.000000 1.000000
vn 0.000000 0.000000 1.000000
vn 0.000000 0.000000 1.000000
vn 0.000000 0.000000 1.000000
vn 0.000000 -1.000000 0.000000
vn 0.000000 -1.000000 0.000000
vn 0.000000 -1.000000 0.000000
vn 0.000000 -1.000000 0.000000
vn 0.000000 0.000000 1.000000
vn 0.000000 0.000000 1.000000
vn 0.000000 0.000000 1.000000
vn 0.000000 0.000000 1.000000
vn 0.000000 1.000000 0.000000
vn 0.000000 1.000000 0.000000
vn 0.000000 1.000000 0.000000
vn 0.000000 1.000000 0.000000
vn 0.000000 0.000000 -1.000000
vn 0.000000 0.000000 -1.000000
vn 0.000000 0.000000 -1.000000
vn 0.000000 0.000000 -1.000000
vn -1.000000 0.000000 0.000000
vn -1.000000 0.000000 0.000000
vn -1.000000 0.000000 0.000000
vn -1.000000 0.000000 0.000000
vn 0.000000 0.000000 1.000000
vn 0.000000 0.000000 1.000000
vn 0.000000 0.000000 1.000000
vn 0.000000 0.000000 1.000000
vn 1.000000 0.000000 0.000000
vn 1.000000 0.000000 0.000000
vn 1.000000 0.000000 0.000000
vn 1.000000 0.000000 0.000000
vn 0.000000 0.000000 -1.000000
vn 0.000000 0.000000 -1.000000
vn 0.000000 0.000000 -1.000000
vn 0.000000 0.000000 -1.000000
vn 1.000000 0.000000 0.000000
vn 1.000000 0.000000 0.000000
vn 1.000000 0.000000 0.000000
vn 1.000000 0.000000 0.000000
vn 0.000000 0.000000 -1.000000
vn 0.000000 0.000000 -1.000000
vn 0.000000 0.000000 -1.000000
vn 0.000000 0.000000 -1.000000
vn -1.000000 0.000000 0.000000
vn -1.000000 0.000000 0.000000
vn -1.000000 0.000000 0.000000
vn -1.000000 0.000000 0.000000
vn 0.000000 0.000000 1.000000
vn 0.000000 0.000000 1.000000
vn 0.000000 0.000000 1.000000
vn 0.000000 0.000000 1.000000
usemtl phong1SG
f 2/2/1 6/3/2 1/1/3
f 1/1/3 6/3/2 5/4/4
f 2/2/5 3/5/6 6/3/7
f 6/3/7 3/5/6 7/6/8
f 3/5/9 4/7/10 7/6/11
f 7/6/11 4/7/10 8/8/12
usemtl blinn1SG
f 5/4/13 6/3/14 9/10/15
f 9/10/15 6/3/14 10/9/16
usemtl blinn2SG
f 6/3/17 7/6/18 10/9/19
f 10/9/19 7/6/18 11/11/20
usemtl blinn3SG
f 7/6/21 8/8/22 11/11/23
f 11/11/23 8/8/22 12/12/24
usemtl phong1SG
f 9/10/25 10/9/26 13/14/27
f 13/14/27 10/9/26 14/13/28
f 10/9/29 11/11/30 14/13/31
f 14/13/31 11/11/30 15/15/32
f 12/12/33 16/16/34 11/11/35
f 11/11/35 16/16/34 15/15/36
f 13/14/37 14/13/38 1/18/39
f 1/18/39 14/13/38 2/17/40
f 14/13/41 15/15/42 2/17/43
f 2/17/43 15/15/42 3/19/44
f 15/15/45 16/16/46 3/19/47
f 3/19/47 16/16/46 4/20/48
f 18/21/49 17/22/50 20/24/51
f 20/24/51 17/22/50 19/23/52
f 21/25/53 22/26/54 24/28/55
f 24/28/55 22/26/54 23/27/56
f 4/7/57 16/29/58 18/21/59
f 18/21/59 16/29/58 17/22/60
f 16/29/61 12/30/62 17/22/63
f 17/22/63 12/30/62 19/23/64
f 26/31/65 25/32/66 28/34/67
f 28/34/67 25/32/66 27/33/68
f 8/8/69 4/7/70 20/24/71
f 20/24/71 4/7/70 18/21/72
f 13/35/73 1/1/74 21/25/75
f 21/25/75 1/1/74 22/26/76
f 1/1/77 5/4/78 22/26/79
f 22/26/79 5/4/78 23/27/80
f 29/36/81 30/37/82 32/39/83
f 32/39/83 30/37/82 31/38/84
f 9/40/85 13/35/86 24/28/87
f 24/28/87 13/35/86 21/25/88
f 12/30/89 8/8/90 26/31/91
f 26/31/91 8/8/90 25/32/92
f 8/8/93 20/24/94 25/32/95
f 25/32/95 20/24/94 27/33/96
f 20/24/97 19/23/98 27/33/99
f 27/33/99 19/23/98 28/34/100
f 19/23/101 12/30/102 28/34/103
f 28/34/103 12/30/102 26/31/104
f 5/4/105 9/40/106 29/36/107
f 29/36/107 9/40/106 30/37/108
f 9/40/109 24/28/110 30/37/111
f 30/37/111 24/28/110 31/38/112
f 24/28/113 23/27/114 31/38/115
f 31/38/115 23/27/114 32/39/116
f 23/27/117 5/4/118 32/39/119
f 32/39/119 5/4/118 29/36/120
v -5.500000 -1.022099 1.000000
v -1.833333 -1.500000 1.000000
v 1.833334 -1.500000 1.000000
v 5.500000 -1.022099 1.000000
v -5.500000 -0.022099 1.000000
v -1.833333 -0.500000 1.000000
v 1.833334 -0.500000 1.000000
v 5.500000 -0.022099 1.000000
v -5.500000 -0.022099 -5.000000
v -1.833333 -0.500000 -5.000000
v 1.833334 -0.500000 -5.000000
v 5.500000 -0.022099 -5.000000
v -5.500000 -1.022099 -5.000000
v -1.833333 -1.500000 -5.000000
v 1.833334 -1.500000 -5.000000
v 5.500000 -1.022099 -5.000000
v 6.000000 -1.022099 -5.000000
v 6.000000 -1.022099 1.000000
v 6.000000 -0.022099 -5.000000
v 6.000000 -0.022099 1.000000
v -6.000001 -1.022099 -5.000000
v -6.000001 -1.022099 1.000000
v -6.000001 -0.022099 1.000000
v -6.000001 -0.022099 -5.000000
v 5.500000 0.470357 1.000000
v 5.500000 0.470357 -5.000000
v 6.000000 0.470357 1.000000
v 6.000000 0.470357 -5.000000
v -5.500000 0.470357 1.000000
v -5.500000 0.470357 -5.000000
v -6.000001 0.470357 -5.000000
v -6.000001 0.470357 1.000000
vt 0.375000 0.000000
vt 0.458333 0.000000
vt 0.458333 0.250000
vt 0.375000 0.250000
vt 0.541667 0.000000
vt 0.541667 0.250000
vt 0.625000 0.000000
vt 0.625000 0.250000
vt 0.458333 0.500000
vt 0.375000 0.500000
vt 0.541667 0.500000
vt 0.625000 0.500000
vt 0.458333 0.750000
vt 0.375000 0.750000
vt 0.541667 0.750000
vt 0.625000 0.750000
vt 0.458333 1.000000
vt 0.375000 1.000000
vt 0.541667 1.000000
vt 0.625000 1.000000
vt 0.625000 0.000000
vt 0.875000 0.000000
vt 0.875000 0.250000
vt 0.625000 0.250000
vt 0.125000 0.000000
vt 0.375000 0.000000
vt 0.375000 0.250000
vt 0.125000 0.250000
vt 0.875000 0.000000
vt 0.875000 0.250000
vt 0.875000 0.250000
vt 0.625000 0.250000
vt 0.625000 0.250000
vt 0.875000 0.250000
vt 0.125000 0.000000
vt 0.375000 0.250000
vt 0.125000 0.250000
vt 0.125000 0.250000
vt 0.375000 0.250000
vt 0.125000 0.250000
vn 0.000000 0.000000 1.000000
vn 0.000000 0.000000 1.000000
vn 0.000000 0.000000 1.000000
vn 0.000000 0.000000 1.000000
vn 0.000000 0.000000 1.000000
vn 0.000000 0.000000 1.000000
vn 0.000000 0.000000 1.000000
vn 0.000000 0.000000 1.000000
vn 0.000000 0.000000 1.000000
vn 0.000000 0.000000 1.000000
vn 0.000000 0.000000 1.000000
vn 0.000000 0.000000 1.000000
vn 0.129243 0.991613 0.000000
vn 0.065030 0.997883 0.000000
vn 0.129243 0.991613 0.000000
vn 0.065030 0.997883 0.000000
vn 0.065030 0.997883 0.000000
vn -0.065030 0.997883 0.000000
vn 0.065030 0.997883 0.000000
vn -0.065030 0.997883 0.000000
vn -0.065030 0.997883 0.000000
vn -0.129243 0.991613 0.000000
vn -0.065030 0.997883 0.000000
vn -0.129243 0.991613 0.000000
vn 0.000000 0.000000 -1.000000
vn 0.000000 0.000000 -1.000000
vn 0.000000 0.000000 -1.000000
vn 0.000000 0.000000 -1.000000
vn 0.000000 0.000000 -1.000000
vn 0.000000 0.000000 -1.000000
vn 0.000000 0.000000 -1.000000
vn 0.000000 0.000000 -1.000000
vn 0.000000 0.000000 -1.000000
vn 0.000000 0.000000 -1.000000
vn 0.000000 0.000000 -1.000000
vn 0.000000 0.000000 -1.000000
vn -0.129243 -0.991613 0.000000
vn -0.065030 -0.997883 0.000000
vn -0.129243 -0.991613 0.000000
vn -0.065030 -0.997883 0.000000
vn -0.065030 -0.997883 0.000000
vn 0.065030 -0.997883 0.000000
vn -0.065030 -0.997883 0.000000
vn 0.065030 -0.997883 0.000000
vn 0.065030 -0.997883 0.000000
vn 0.129243 -0.991613 0.000000
vn 0.065030 -0.997883 0.000000
vn 0.129243 -0.991613 0.000000
vn 1.000000 0.000000 0.000000
vn 1.000000 0.000000 0.000000
vn 1.000000 0.000000 0.000000
vn 1.000000 0.000000 0.000000
vn -1.000000 0.000000 0.000000
vn -1.000000 0.000000 0.000000
vn -1.000000 0.000000 0.000000
vn -1.000000 0.000000 0.000000
vn 0.000000 -1.000000 0.000000
vn 0.000000 -1.000000 0.000000
vn 0.000000 -1.000000 0.000000
vn 0.000000 -1.000000 0.000000
vn 0.000000 0.000000 -1.000000
vn 0.000000 0.000000 -1.000000
vn 0.000000 0.000000 -1.000000
vn 0.000000 0.000000 -1.000000
vn 0.000000 1.000000 0.000000
vn 0.000000 1.000000 0.000000
vn 0.000000 1.000000 0.000000
vn 0.000000 1.000000 0.000000
vn 0.000000 0.000000 1.000000
vn 0.000000 0.000000 1.000000
vn 0.000000 0.000000 1.000000
vn 0.000000 0.000000 1.000000
vn 0.000000 -1.000000 0.000000
vn 0.000000 -1.000000 0.000000
vn 0.000000 -1.000000 0.000000
vn 0.000000 -1.000000 0.000000
vn 0.000000 0.000000 1.000000
vn 0.000000 0.000000 1.000000
vn 0.000000 0.000000 1.000000
vn 0.000000 0.000000 1.000000
vn 0.000000 1.000000 0.000000
vn 0.000000 1.000000 0.000000
vn 0.000000 1.000000 0.000000
vn 0.000000 1.000000 0.000000
vn 0.000000 0.000000 -1.000000
vn 0.000000 0.000000 -1.000000
vn 0.000000 0.000000 -1.000000
vn 0.000000 0.000000 -1.000000
vn -1.000000 0.000000 0.000000
vn -1.000000 0.000000 0.000000
vn -1.000000 0.000000 0.000000
vn -1.000000 0.000000 0.000000
vn 0.000000 0.000000 1.000000
vn 0.000000 0.000000 1.000000
vn 0.000000 0.000000 1.000000
vn 0.000000 0.000000 1.000000
vn 1.000000 0.000000 0.000000
vn 1.000000 0.000000 0.000000
vn 1.000000 0.000000 0.000000
vn 1.000000 0.000000 0.000000
vn 0.000000 0.000000 -1.000000
vn 0.000000 0.000000 -1.000000
vn 0.000000 0.000000 -1.000000
vn 0.000000 0.000000 -1.000000
vn 1.000000 0.000000 0.000000
vn 1.000000 0.000000 0.000000
vn 1.000000 0.000000 0.000000
vn 1.000000 0.000000 0.000000
vn 0.000000 0.000000 -1.000000
vn 0.000000 0.000000 -1.000000
vn 0.000000 0.000000 -1.000000
vn 0.000000 0.000000 -1.000000
vn -1.000000 0.000000 0.000000
vn -1.000000 0.000000 0.000000
vn -1.000000 0.000000 0.000000
vn -1.000000 0.000000 0.000000
vn 0.000000 0.000000 1.000000
vn 0.000000 0.000000 1.000000
vn 0.000000 0.000000 1.000000
vn 0.000000 0.000000 1.000000
f 34/42/121 38/43/122 33/41/123
f 33/41/123 38/43/122 37/44/124
f 34/42/125 35/45/126 38/43/127
f 38/43/127 35/45/126 39/46/128
f 35/45/129 36/47/130 39/46/131
f 39/46/131 36/47/130 40/48/132
f 37/44/133 38/43/134 41/50/135
f 41/50/135 38/43/134 42/49/136
f 38/43/137 39/46/138 42/49/139
f 42/49/139 39/46/138 43/51/140
f 39/46/141 40/48/142 43/51/143
f 43/51/143 40/48/142 44/52/144
f 41/50/145 42/49/146 45/54/147
f 45/54/147 42/49/146 46/53/148
f 42/49/149 43/51/150 46/53/151
f 46/53/151 43/51/150 47/55/152
f 44/52/153 48/56/154 43/51/155
f 43/51/155 48/56/154 47/55/156
f 45/54/157 46/53/158 33/58/159
f 33/58/159 46/53/158 34/57/160
f 46/53/161 47/55/162 34/57/163
f 34/57/163 47/55/162 35/59/164
f 47/55/165 48/56/166 35/59/167
f 35/59/167 48/56/166 36/60/168
f 50/61/169 49/62/170 52/64/171
f 52/64/171 49/62/170 51/63/172
f 53/65/173 54/66/174 56/68/175
f 56/68/175 54/66/174 55/67/176
f 36/47/177 48/69/178 50/61/179
f 50/61/179 48/69/178 49/62/180
f 48/69/181 44/70/182 49/62/183
f 49/62/183 44/70/182 51/63/184
f 58/71/185 57/72/186 60/74/187
f 60/74/187 57/72/186 59/73/188
f 40/48/189 36/47/190 52/64/191
f 52/64/191 36/47/190 50/61/192
f 45/75/193 33/41/194 53/65/195
f 53/65/195 33/41/194 54/66/196
f 33/41/197 37/44/198 54/66/199
f 54/66/199 37/44/198 55/67/200
f 61/76/201 62/77/202 64/79/203
f 64/79/203 62/77/202 63/78/204
f 41/80/205 45/75/206 56/68/207
f 56/68/207 45/75/206 53/65/208
f 44/70/209 40/48/210 58/71/211
f 58/71/211 40/48/210 57/72/212
f 40/48/213 52/64/214 57/72/215
f 57/72/215 52/64/214 59/73/216
f 52/64/217 51/63/218 59/73/219
f 59/73/219 51/63/218 60/74/220
f 51/63/221 44/70/222 60/74/223
f 60/74/223 44/70/222 58/71/224
f 37/44/225 41/80/226 61/76/227
f 61/76/227 41/80/226 62/77/228
f 41/80/229 56/68/230 62/77/231
f 62/77/231 56/68/230 63/78/232
f 56/68/233 55/67/234 63/78/235
f 63/78/235 55/67/234 64/79/236
f 55/67/237 37/44/238 64/79/239
f 64/79/239 37/44/238 61/76/240
