# This file uses centimeters as units for non-parametric coordinates.

mtllib TrackPiece.mtl
v -5.500000 -1.022099 3.120678
v -1.833333 -1.500000 3.120678
v 1.833334 -1.500000 3.120678
v 5.500000 -1.022099 3.120678
v -5.500000 -0.022099 3.120678
v -1.833333 -0.500000 3.120678
v 1.833334 -0.500000 3.120678
v 5.500000 -0.022099 3.120678
v -5.500000 -0.022099 -24.379322
v -1.833333 -0.500000 -24.379322
v 1.833334 -0.500000 -24.379322
v 5.500000 -0.022099 -24.379322
v -5.500000 -1.022099 -24.379322
v -1.833333 -1.500000 -24.379322
v 1.833334 -1.500000 -24.379322
v 5.500000 -1.022099 -24.379322
v 6.000000 -1.022099 -24.379322
v 6.000000 -1.022099 3.120678
v 6.000000 -0.022099 -24.379322
v 6.000000 -0.022099 3.120678
v -6.000001 -1.022099 -24.379322
v -6.000001 -1.022099 3.120678
v -6.000001 -0.022099 3.120678
v -6.000001 -0.022099 -24.379322
v 5.500000 0.470357 3.120678
v 5.500000 0.470357 -24.379322
v 6.000000 0.470357 3.120678
v 6.000000 0.470357 -24.379322
v -5.500000 0.470357 3.120678
v -5.500000 0.470357 -24.379322
v -6.000001 0.470357 -24.379322
v -6.000001 0.470357 3.120678
v -3.666667 -0.261050 -10.629318
v -1.833333 -0.500000 -10.629318
v 0.000000 -0.500000 -10.629318
v 1.833334 -0.500000 -10.629318
v 3.666667 -0.261050 -10.629318
v 5.500000 -0.022099 -10.629318
v 5.500000 0.224129 -10.629318
v 5.500000 0.470357 -10.629318
v 5.750000 0.470357 -10.629318
v 6.000000 0.470357 -10.629318
v 6.000000 0.224129 -10.629318
v 6.000000 -0.022099 -10.629318
v 6.000000 -0.522099 -10.629318
v 6.000000 -1.022099 -10.629318
v 5.750000 -1.022099 -10.629318
v 5.500000 -1.022099 -10.629318
v 3.666667 -1.261050 -10.629318
v 1.833334 -1.500000 -10.629318
v 0.000000 -1.500000 -10.629318
v -1.833333 -1.500000 -10.629318
v -3.666667 -1.261050 -10.629318
v -5.500000 -1.022099 -10.629318
v -5.750000 -1.022099 -10.629318
v -6.000001 -1.022099 -10.629318
v -6.000001 -0.522099 -10.629318
v -6.000001 -0.022099 -10.629318
v -6.000001 0.224129 -10.629318
v -6.000001 0.470357 -10.629318
v -5.750000 0.470357 -10.629318
v -5.500000 0.470357 -10.629318
v -5.500000 0.224129 -10.629318
v -5.500000 -0.022099 -10.629318
v 1.833334 -1.333333 3.120678
v -1.833333 -1.333333 3.120678
v 1.833334 -1.166667 3.120678
v -1.833333 -1.166667 3.120678
v 1.833334 -1.000000 3.120678
v -1.833333 -1.000000 3.120678
v 1.833333 -0.833333 3.120678
v -1.833333 -0.833333 3.120678
v 1.833334 -0.666667 3.120678
v -1.833333 -0.666667 3.120678
v 5.500000 -0.855432 3.120678
v 1.833334 -1.333333 3.120678
v 5.500000 -0.688766 3.120678
v 1.833334 -1.166667 3.120678
v 5.500000 -0.522099 3.120678
v 1.833334 -1.000000 3.120678
v 5.500000 -0.355432 3.120678
v 1.833333 -0.833333 3.120678
v 5.500000 -0.188766 3.120678
v 1.833334 -0.666667 3.120678
v -1.833333 -1.333333 3.120678
v -5.500000 -0.855432 3.120678
v -1.833333 -1.166667 3.120678
v -5.500000 -0.688766 3.120678
v -1.833333 -1.000000 3.120678
v -5.500000 -0.522099 3.120678
v -1.833333 -0.833333 3.120678
v -5.500000 -0.355432 3.120678
v -1.833333 -0.666667 3.120678
v -5.500000 -0.188766 3.120678
v 6.000000 -0.773356 3.120678
v 5.500000 -0.773356 3.120678
v 6.000000 -0.524614 3.120678
v 5.500000 -0.524614 3.120678
v 6.000000 -0.275871 3.120678
v 5.500000 -0.275871 3.120678
v 6.000000 -0.027128 3.120678
v 5.500000 -0.027128 3.120678
v 6.000000 0.221614 3.120678
v 5.500000 0.221614 3.120678
v -5.500000 -0.773356 3.120678
v -6.000001 -0.773356 3.120678
v -5.500000 -0.524614 3.120678
v -6.000001 -0.524614 3.120678
v -5.500000 -0.275871 3.120678
v -6.000001 -0.275871 3.120678
v -5.500000 -0.027128 3.120678
v -6.000001 -0.027128 3.120678
v -5.500000 0.221614 3.120678
v -6.000001 0.221614 3.120678
vt 0.375000 0.000000
vt 0.625000 0.000000
vt 0.375000 0.250000
vt 0.458333 0.250000
vt 0.541667 0.250000
vt 0.625000 0.250000
vt 0.375000 0.500000
vt 0.458333 0.500000
vt 0.541667 0.500000
vt 0.625000 0.500000
vt 0.375000 0.750000
vt 0.458333 0.750000
vt 0.541667 0.750000
vt 0.625000 0.750000
vt 0.375000 1.000000
vt 0.458333 1.000000
vt 0.541667 1.000000
vt 0.625000 1.000000
vt 0.875000 0.000000
vt 0.875000 0.250000
vt 0.125000 0.000000
vt 0.125000 0.250000
vt 0.625000 0.000000
vt 0.875000 0.000000
vt 0.875000 0.250000
vt 0.625000 0.250000
vt 0.125000 0.000000
vt 0.375000 0.000000
vt 0.375000 0.250000
vt 0.125000 0.250000
vt 0.875000 0.250000
vt 0.625000 0.250000
vt 0.625000 0.250000
vt 0.875000 0.250000
vt 0.375000 0.250000
vt 0.125000 0.250000
vt 0.125000 0.250000
vt 0.375000 0.250000
vt 0.416667 0.375000
vt 0.458333 0.375000
vt 0.500000 0.375000
vt 0.541667 0.375000
vt 0.583333 0.375000
vt 0.625000 0.375000
vt 0.750000 0.250000
vt 0.750000 0.250000
vt 0.750000 0.250000
vt 0.750000 0.250000
vt 0.750000 0.250000
vt 0.750000 0.250000
vt 0.750000 0.250000
vt 0.750000 0.125000
vt 0.750000 0.000000
vt 0.750000 0.000000
vt 0.625000 0.875000
vt 0.750000 0.000000
vt 0.583333 0.875000
vt 0.541667 0.875000
vt 0.500000 0.875000
vt 0.458333 0.875000
vt 0.416667 0.875000
vt 0.250000 0.000000
vt 0.375000 0.875000
vt 0.250000 0.000000
vt 0.250000 0.000000
vt 0.250000 0.125000
vt 0.250000 0.250000
vt 0.250000 0.250000
vt 0.250000 0.250000
vt 0.250000 0.250000
vt 0.250000 0.250000
vt 0.250000 0.250000
vt 0.250000 0.250000
vt 0.375000 0.375000
vt 0.541667 0.875000
vt 0.458333 0.875000
vt 0.541667 0.750000
vt 0.458333 0.750000
vt 0.541667 0.625000
vt 0.458333 0.625000
vt 0.541667 0.500000
vt 0.458333 0.500000
vt 0.541667 0.375000
vt 0.458333 0.375000
vt 0.625000 0.875000
vt 0.541667 0.875000
vt 0.625000 0.750000
vt 0.541667 0.750000
vt 0.625000 0.625000
vt 0.541667 0.625000
vt 0.625000 0.500000
vt 0.541667 0.500000
vt 0.625000 0.375000
vt 0.541667 0.375000
vt 0.458333 0.875000
vt 0.375000 0.875000
vt 0.458333 0.750000
vt 0.375000 0.750000
vt 0.458333 0.625000
vt 0.375000 0.625000
vt 0.458333 0.500000
vt 0.375000 0.500000
vt 0.458333 0.375000
vt 0.375000 0.375000
vt 0.625000 0.041667
vt 0.625000 0.041667
vt 0.625000 0.083333
vt 0.625000 0.083333
vt 0.625000 0.125000
vt 0.625000 0.125000
vt 0.625000 0.166667
vt 0.625000 0.166667
vt 0.625000 0.208333
vt 0.625000 0.208333
vt 0.375000 0.041667
vt 0.375000 0.041667
vt 0.375000 0.083333
vt 0.375000 0.083333
vt 0.375000 0.125000
vt 0.375000 0.125000
vt 0.375000 0.166667
vt 0.375000 0.166667
vt 0.375000 0.208333
vt 0.375000 0.208333
vn 0.129243 0.991613 0.000000
vn 0.129243 0.991613 0.000000
vn 0.129243 0.991613 0.000000
vn 0.097289 0.995256 0.000000
vn 0.069773 0.997563 0.000000
vn 0.000000 1.000000 0.000000
vn -0.032567 0.999470 0.000000
vn -0.056860 0.998382 0.000000
vn -0.129243 0.991613 0.000000
vn -0.129243 0.991613 0.000000
vn -0.129243 0.991613 0.000000
vn -0.129243 -0.991613 0.000000
vn -0.056860 -0.998382 0.000000
vn -0.129243 -0.991613 0.000000
vn -0.129243 -0.991613 0.000000
vn -0.032567 -0.999470 0.000000
vn 0.069773 -0.997563 0.000000
vn 0.000000 -1.000000 0.000000
vn 0.097289 -0.995256 0.000000
vn 0.129243 -0.991613 0.000000
vn 0.129243 -0.991613 0.000000
vn 0.129243 -0.991613 0.000000
vn 1.000000 0.000000 0.000000
vn 1.000000 0.000000 0.000000
vn 1.000000 0.000000 0.000000
vn 1.000000 0.000000 0.000000
vn 1.000000 0.000000 0.000000
vn -1.000000 0.000000 0.000000
vn -1.000000 0.000000 0.000000
vn -1.000000 0.000000 0.000000
vn -1.000000 0.000000 0.000000
vn -1.000000 0.000000 0.000000
vn 0.000000 -1.000000 0.000000
vn 0.000000 -1.000000 0.000000
vn 0.000000 -1.000000 0.000000
vn 0.000000 -1.000000 0.000000
vn 0.000000 -1.000000 0.000000
vn 0.000000 1.000000 0.000000
vn 0.000000 1.000000 0.000000
vn 0.000000 1.000000 0.000000
vn 0.000000 1.000000 0.000000
vn 0.000000 1.000000 0.000000
vn 0.000000 -1.000000 0.000000
vn 0.000000 -1.000000 0.000000
vn 0.000000 -1.000000 0.000000
vn 0.000000 -1.000000 0.000000
vn 0.000000 -1.000000 0.000000
vn 0.000000 1.000000 0.000000
vn 0.000000 1.000000 0.000000
vn 0.000000 1.000000 0.000000
vn 0.000000 1.000000 0.000000
vn 0.000000 1.000000 0.000000
vn -1.000000 0.000000 0.000000
vn -1.000000 0.000000 0.000000
vn -1.000000 0.000000 0.000000
vn -1.000000 0.000000 0.000000
vn -1.000000 0.000000 0.000000
vn 1.000000 0.000000 0.000000
vn 1.000000 0.000000 0.000000
vn 1.000000 0.000000 0.000000
vn 1.000000 0.000000 0.000000
vn 1.000000 0.000000 0.000000
vn 1.000000 0.000000 0.000000
vn 1.000000 0.000000 0.000000
vn 1.000000 0.000000 0.000000
vn 1.000000 0.000000 0.000000
vn 1.000000 0.000000 0.000000
vn -1.000000 0.000000 0.000000
vn -1.000000 0.000000 0.000000
vn -1.000000 0.000000 0.000000
vn -1.000000 0.000000 0.000000
vn -1.000000 0.000000 0.000000
vn 0.032567 0.999470 0.000000
vn 0.129243 0.991613 0.000000
vn 0.056860 0.998382 0.000000
vn -0.069773 0.997563 0.000000
vn 0.000000 1.000000 0.000000
vn -0.097289 0.995256 0.000000
vn -0.129243 0.991613 0.000000
vn -0.129243 0.991613 0.000000
vn -0.129244 0.991613 0.000000
vn -1.000000 0.000000 0.000000
vn -1.000000 0.000000 0.000000
vn -1.000000 0.000000 0.000000
vn -1.000000 0.000000 0.000000
vn -1.000000 0.000000 0.000000
vn 0.000000 1.000000 0.000000
vn 0.000000 1.000000 0.000000
vn 0.000000 1.000000 0.000000
vn 0.000000 1.000000 0.000000
vn 0.000000 1.000000 0.000000
vn 1.000000 0.000000 0.000000
vn 1.000000 0.000000 0.000000
vn 1.000000 0.000000 0.000000
vn 1.000000 0.000000 0.000000
vn 1.000000 0.000000 0.000000
vn 1.000000 0.000000 0.000000
vn 1.000000 0.000000 0.000000
vn 1.000000 0.000000 0.000000
vn 1.000000 0.000000 0.000000
vn 1.000000 0.000000 0.000000
vn 0.000000 -1.000000 -0.000000
vn 0.000000 -1.000000 -0.000000
vn 0.000000 -1.000000 0.000000
vn 0.000000 -1.000000 -0.000000
vn 0.000000 -1.000000 -0.000000
vn 0.056860 -0.998382 -0.000000
vn 0.129243 -0.991613 -0.000000
vn 0.129243 -0.991613 -0.000000
vn 0.129243 -0.991613 -0.000000
vn 0.032567 -0.999470 0.000000
vn -0.069773 -0.997563 0.000000
vn 0.000000 -1.000000 0.000000
vn -0.097289 -0.995256 0.000000
vn -0.129243 -0.991613 0.000000
vn -0.129243 -0.991613 0.000000
vn -0.129243 -0.991613 0.000000
vn 0.000000 -1.000000 0.000000
vn 0.000000 -1.000000 0.000000
vn 0.000000 -1.000000 0.000000
vn 0.000000 -1.000000 0.000000
vn 0.000000 -1.000000 0.000000
vn -1.000000 0.000000 0.000000
vn -1.000000 0.000000 0.000000
vn -1.000000 0.000000 0.000000
vn -1.000000 0.000000 0.000000
vn -1.000000 0.000000 0.000000
vn -1.000000 0.000000 0.000000
vn -1.000000 0.000000 0.000000
vn -1.000000 0.000000 0.000000
vn -1.000000 0.000000 0.000000
vn -1.000000 0.000000 0.000000
vn 0.000000 1.000000 0.000000
vn 0.000000 1.000000 0.000000
vn 0.000000 1.000000 0.000000
vn 0.000000 1.000000 0.000000
vn 0.000000 1.000000 0.000000
vn 1.000000 0.000000 0.000000
vn 1.000000 0.000000 0.000000
vn 1.000000 0.000000 0.000000
vn 1.000000 0.000000 0.000000
vn 1.000000 0.000000 0.000000
vn 0.129243 0.991613 0.000000
vn 0.129243 0.991613 0.000000
vn 0.000000 0.000000 1.000000
vn 0.000000 0.000000 1.000000
vn 0.000000 0.000000 1.000000
vn 0.000000 0.000000 1.000000
vn 0.000000 0.000000 1.000000
vn 0.000000 0.000000 1.000000
vn 0.000000 0.000000 1.000000
vn 0.000000 0.000000 1.000000
vn 0.000000 0.000000 1.000000
vn 0.000000 0.000000 1.000000
vn 0.000000 0.000000 1.000000
vn 0.000000 0.000000 1.000000
vn 0.000000 0.000000 1.000000
vn 0.000000 0.000000 1.000000
vn 0.000000 0.000000 1.000000
vn 0.000000 0.000000 1.000000
vn 0.000000 0.000000 1.000000
vn 0.000000 0.000000 1.000000
vn 0.000000 0.000000 1.000000
vn 0.000000 0.000000 1.000000
vn 0.000000 0.000000 1.000000
vn 0.000000 0.000000 1.000000
vn 0.000000 0.000000 1.000000
vn 0.000000 0.000000 1.000000
vn 0.000000 0.000000 1.000000
vn 0.000000 0.000000 1.000000
vn 0.000000 0.000000 1.000000
vn 0.000000 0.000000 1.000000
vn 0.000000 0.000000 1.000000
vn 0.000000 0.000000 1.000000
vn 0.000000 0.000000 1.000000
vn 0.000000 0.000000 1.000000
vn 0.000000 0.000000 1.000000
vn 0.000000 0.000000 1.000000
vn 0.000000 0.000000 1.000000
vn 0.000000 0.000000 1.000000
vn 0.000000 0.000000 1.000000
vn 0.000000 0.000000 1.000000
vn 0.000000 0.000000 1.000000
vn 0.000000 0.000000 1.000000
vn 0.000000 0.000000 1.000000
vn 0.000000 0.000000 1.000000
vn 0.000000 0.000000 1.000000
vn 0.000000 0.000000 1.000000
vn 0.000000 0.000000 1.000000
vn 0.000000 0.000000 1.000000
vn 0.000000 0.000000 1.000000
vn 0.000000 0.000000 1.000000
vn 0.000000 0.000000 1.000000
vn 0.000000 0.000000 1.000000
vn 0.000000 0.000000 1.000000
vn 0.000000 0.000000 1.000000
vn 0.000000 0.000000 1.000000
vn 0.000000 0.000000 1.000000
vn 0.000000 0.000000 1.000000
vn 0.000000 0.000000 1.000000
vn 0.000000 0.000000 1.000000
vn 0.000000 0.000000 1.000000
vn 0.000000 0.000000 1.000000
vn 0.000000 0.000000 1.000000
vn 0.000000 0.000000 1.000000
vn 0.000000 0.000000 1.000000
vn 0.000000 0.000000 1.000000
vn 0.000000 0.000000 1.000000
vn 0.000000 0.000000 1.000000
vn 0.000000 0.000000 1.000000
vn 0.000000 0.000000 1.000000
vn 0.000000 0.000000 1.000000
vn 0.000000 0.000000 1.000000
vn 0.000000 0.000000 1.000000
usemtl blinn1SG
f 64/74/1 33/39/2 9/7/3
f 9/7/3 33/39/2 34/40/4 10/8/5
usemtl blinn2SG
f 34/40/4 35/41/6 10/8/5
f 10/8/5 35/41/6 36/42/7 11/9/8
usemtl blinn3SG
f 36/42/7 37/43/9 11/9/8
f 11/9/8 37/43/9 38/44/10 12/10/11
usemtl phong1SG
f 13/11/12 14/12/13 53/61/14 54/63/15
f 52/60/16 53/61/14 14/12/13
f 14/12/13 15/13/17 51/59/18 52/60/16
f 50/58/19 51/59/18 15/13/17
f 15/13/17 16/14/20 49/57/21 50/58/19
f 48/55/22 49/57/21 16/14/20
f 45/52/23 46/53/24 17/24/25
f 44/51/26 45/52/23 17/24/25 19/25/27
f 21/27/28 56/65/29 57/66/30 24/30/31
f 24/30/31 57/66/30 58/67/32
f 47/54/33 48/56/34 16/19/35
f 46/53/36 47/54/33 16/19/35 17/24/37
f 26/31/38 40/47/39 41/48/40 28/34/41
f 28/34/41 41/48/40 42/49/42
f 13/21/43 54/62/44 55/64/45 21/27/46
f 21/27/46 55/64/45 56/65/47
f 61/70/48 62/71/49 30/36/50
f 60/69/51 61/70/48 30/36/50 31/37/52
f 12/20/53 38/45/54 39/46/55 26/31/56
f 26/31/56 39/46/55 40/47/57
f 43/50/58 44/51/59 19/25/60
f 42/49/61 43/50/58 19/25/60 28/34/62
f 63/72/63 64/73/64 9/22/65
f 62/71/66 63/72/63 9/22/65 30/36/67
f 24/30/68 58/67/69 59/68/70 31/37/71
f 31/37/71 59/68/70 60/69/72
usemtl blinn1SG
f 34/40/73 33/39/74 6/4/75
usemtl blinn2SG
f 6/4/75 7/5/76 35/41/77 34/40/73
f 36/42/78 35/41/77 7/5/76
usemtl blinn3SG
f 7/5/76 8/6/79 37/43/80 36/42/78
f 38/44/81 37/43/80 8/6/79
usemtl phong1SG
f 39/46/82 38/45/83 8/6/84
f 40/47/85 39/46/82 8/6/84 25/32/86
f 41/48/87 40/47/88 25/32/89
f 42/49/90 41/48/87 25/32/89 27/33/91
f 27/33/92 43/50/93 42/49/94
f 20/26/95 44/51/96 43/50/93 27/33/92
f 20/26/97 45/52/98 44/51/99
f 18/23/100 46/53/101 45/52/98 20/26/97
f 18/23/102 47/54/103 46/53/104
f 4/2/105 48/56/106 47/54/103 18/23/102
f 3/17/107 49/57/108 48/55/109 4/18/110
f 50/58/111 49/57/108 3/17/107
f 2/16/112 51/59/113 50/58/111 3/17/107
f 52/60/114 51/59/113 2/16/112
f 1/15/115 53/61/116 52/60/114 2/16/112
f 54/63/117 53/61/116 1/15/115
f 55/64/118 54/62/119 1/1/120
f 56/65/121 55/64/118 1/1/120 22/28/122
f 57/66/123 56/65/124 22/28/125
f 58/67/126 57/66/123 22/28/125 23/29/127
f 59/68/128 58/67/129 23/29/130
f 60/69/131 59/68/128 23/29/130 32/38/132
f 32/38/133 61/70/134 60/69/135
f 29/35/136 62/71/137 61/70/134 32/38/133
f 29/35/138 63/72/139 62/71/140
f 5/3/141 64/73/142 63/72/139 29/35/138
usemtl blinn1SG
f 5/3/143 6/4/75 33/39/74 64/74/144
usemtl phong1SG
f 2/16/145 3/17/146 66/76/147
f 66/76/147 3/17/146 65/75/148
f 66/76/147 65/75/148 68/78/149
f 68/78/149 65/75/148 67/77/150
f 68/78/149 67/77/150 70/80/151
f 70/80/151 67/77/150 69/79/152
f 70/80/151 69/79/152 72/82/153
f 72/82/153 69/79/152 71/81/154
f 72/82/153 71/81/154 74/84/155
f 74/84/155 71/81/154 73/83/156
f 74/84/155 73/83/156 6/4/157
f 6/4/157 73/83/156 7/5/158
f 3/17/159 4/18/160 76/86/161
f 76/86/161 4/18/160 75/85/162
f 76/86/161 75/85/162 78/88/163
f 78/88/163 75/85/162 77/87/164
f 78/88/163 77/87/164 80/90/165
f 80/90/165 77/87/164 79/89/166
f 80/90/165 79/89/166 82/92/167
f 82/92/167 79/89/166 81/91/168
f 82/92/167 81/91/168 84/94/169
f 84/94/169 81/91/168 83/93/170
f 84/94/169 83/93/170 7/5/171
f 7/5/171 83/93/170 8/6/172
f 2/16/173 85/95/174 1/15/175
f 1/15/175 85/95/174 86/96/176
f 85/95/174 87/97/177 86/96/176
f 86/96/176 87/97/177 88/98/178
f 87/97/177 89/99/179 88/98/178
f 88/98/178 89/99/179 90/100/180
f 89/99/179 91/101/181 90/100/180
f 90/100/180 91/101/181 92/102/182
f 91/101/181 93/103/183 92/102/182
f 92/102/182 93/103/183 94/104/184
f 93/103/183 6/4/185 94/104/184
f 94/104/184 6/4/185 5/3/186
f 4/2/187 18/23/188 96/106/189
f 96/106/189 18/23/188 95/105/190
f 96/106/189 95/105/190 98/108/191
f 98/108/191 95/105/190 97/107/192
f 98/108/191 97/107/192 100/110/193
f 100/110/193 97/107/192 99/109/194
f 100/110/193 99/109/194 102/112/195
f 102/112/195 99/109/194 101/111/196
f 102/112/195 101/111/196 104/114/197
f 104/114/197 101/111/196 103/113/198
f 104/114/197 103/113/198 25/32/199
f 25/32/199 103/113/198 27/33/200
f 22/28/201 1/1/202 106/116/203
f 106/116/203 1/1/202 105/115/204
f 106/116/203 105/115/204 108/118/205
f 108/118/205 105/115/204 107/117/206
f 108/118/205 107/117/206 110/120/207
f 110/120/207 107/117/206 109/119/208
f 110/120/207 109/119/208 112/122/209
f 112/122/209 109/119/208 111/121/210
f 112/122/209 111/121/210 114/124/211
f 114/124/211 111/121/210 113/123/212
f 114/124/211 113/123/212 32/38/213
f 32/38/213 113/123/212 29/35/214
