# This file uses centimeters as units for non-parametric coordinates.

mtllib track.mtl
v -5.500000 -1.022099 3.592728
v -1.833333 -1.500000 3.592728
v 1.833334 -1.500000 3.592728
v 5.500000 -1.022099 3.592728
v -5.500000 -0.022099 3.592728
v -1.833333 -0.500000 3.592728
v 1.833334 -0.500000 3.592728
v 5.500000 -0.022099 3.592728
v -5.500000 -0.022099 -61.407272
v -1.833333 -0.500000 -61.407272
v 1.833334 -0.500000 -61.407272
v 5.500000 -0.022099 -61.407272
v -5.500000 -1.022099 -61.407272
v -1.833333 -1.500000 -61.407272
v 1.833334 -1.500000 -61.407272
v 5.500000 -1.022099 -61.407272
v 6.000000 -1.022099 -61.407272
v 6.000000 -1.022099 3.592728
v 6.000000 -0.022099 -61.407272
v 6.000000 -0.022099 3.592728
v -6.000001 -1.022099 -61.407272
v -6.000001 -1.022099 3.592728
v -6.000001 -0.022099 3.592728
v -6.000001 -0.022099 -61.407272
v 5.500000 0.470357 3.592728
v 5.500000 0.470357 -61.407272
v 6.000000 0.470357 3.592728
v 6.000000 0.470357 -61.407272
v -5.500000 0.470357 3.592728
v -5.500000 0.470357 -61.407272
v -6.000001 0.470357 -61.407272
v -6.000001 0.470357 3.592728
vt 0.375000 0.000000
vt 0.625000 0.000000
vt 0.375000 0.250000
vt 0.458333 0.250000
vt 0.541667 0.250000
vt 0.625000 0.250000
vt 0.375000 0.500000
vt 0.458333 0.500000
vt 0.541667 0.500000
vt 0.625000 0.500000
vt 0.375000 0.750000
vt 0.458333 0.750000
vt 0.541667 0.750000
vt 0.625000 0.750000
vt 0.375000 1.000000
vt 0.458333 1.000000
vt 0.541667 1.000000
vt 0.625000 1.000000
vt 0.875000 0.000000
vt 0.875000 0.250000
vt 0.125000 0.000000
vt 0.125000 0.250000
vt 0.625000 0.000000
vt 0.875000 0.000000
vt 0.875000 0.250000
vt 0.625000 0.250000
vt 0.125000 0.000000
vt 0.375000 0.000000
vt 0.375000 0.250000
vt 0.125000 0.250000
vt 0.875000 0.250000
vt 0.625000 0.250000
vt 0.625000 0.250000
vt 0.875000 0.250000
vt 0.375000 0.250000
vt 0.125000 0.250000
vt 0.125000 0.250000
vt 0.375000 0.250000
vn 0.129243 0.991613 0.000000
vn 0.065030 0.997883 0.000000
vn 0.129243 0.991613 0.000000
vn 0.065030 0.997883 0.000000
vn -0.065030 0.997883 0.000000
vn -0.065030 0.997883 0.000000
vn -0.129243 0.991613 0.000000
vn -0.129243 0.991613 0.000000
vn -0.129243 -0.991613 0.000000
vn -0.065030 -0.997883 0.000000
vn -0.129243 -0.991613 0.000000
vn -0.065030 -0.997883 0.000000
vn 0.065030 -0.997883 0.000000
vn 0.065030 -0.997883 0.000000
vn 0.129243 -0.991613 0.000000
vn 0.129243 -0.991613 0.000000
vn 1.000000 0.000000 0.000000
vn 1.000000 0.000000 0.000000
vn 1.000000 0.000000 0.000000
vn 1.000000 0.000000 0.000000
vn -1.000000 0.000000 0.000000
vn -1.000000 0.000000 0.000000
vn -1.000000 0.000000 0.000000
vn -1.000000 0.000000 0.000000
vn 0.000000 -1.000000 0.000000
vn 0.000000 -1.000000 0.000000
vn 0.000000 -1.000000 0.000000
vn 0.000000 -1.000000 0.000000
vn 0.000000 1.000000 0.000000
vn 0.000000 1.000000 0.000000
vn 0.000000 1.000000 0.000000
vn 0.000000 1.000000 0.000000
vn 0.000000 -1.000000 0.000000
vn 0.000000 -1.000000 0.000000
vn 0.000000 -1.000000 0.000000
vn 0.000000 -1.000000 0.000000
vn 0.000000 1.000000 0.000000
vn 0.000000 1.000000 0.000000
vn 0.000000 1.000000 0.000000
vn 0.000000 1.000000 0.000000
vn -1.000000 0.000000 0.000000
vn -1.000000 0.000000 0.000000
vn -1.000000 0.000000 0.000000
vn -1.000000 0.000000 0.000000
vn 1.000000 0.000000 0.000000
vn 1.000000 0.000000 0.000000
vn 1.000000 0.000000 0.000000
vn 1.000000 0.000000 0.000000
vn 1.000000 0.000000 0.000000
vn 1.000000 0.000000 0.000000
vn 1.000000 0.000000 0.000000
vn 1.000000 0.000000 0.000000
vn -1.000000 0.000000 0.000000
vn -1.000000 0.000000 0.000000
vn -1.000000 0.000000 0.000000
vn -1.000000 0.000000 0.000000
usemtl blinn1SG
f 5/3/1 6/4/2 9/7/3
f 9/7/3 6/4/2 10/8/4
usemtl blinn2SG
f 6/4/2 7/5/5 10/8/4
f 10/8/4 7/5/5 11/9/6
usemtl blinn3SG
f 7/5/5 8/6/7 11/9/6
f 11/9/6 8/6/7 12/10/8
usemtl phong1SG
f 13/11/9 14/12/10 1/15/11
f 1/15/11 14/12/10 2/16/12
f 14/12/10 15/13/13 2/16/12
f 2/16/12 15/13/13 3/17/14
f 15/13/13 16/14/15 3/17/14
f 3/17/14 16/14/15 4/18/16
f 18/23/17 17/24/18 20/26/19
f 20/26/19 17/24/18 19/25/20
f 21/27/21 22/28/22 24/30/23
f 24/30/23 22/28/22 23/29/24
f 4/2/25 16/19/26 18/23/27
f 18/23/27 16/19/26 17/24/28
f 26/31/29 25/32/30 28/34/31
f 28/34/31 25/32/30 27/33/32
f 13/21/33 1/1/34 21/27/35
f 21/27/35 1/1/34 22/28/36
f 29/35/37 30/36/38 32/38/39
f 32/38/39 30/36/38 31/37/40
f 12/20/41 8/6/42 26/31/43
f 26/31/43 8/6/42 25/32/44
f 20/26/45 19/25/46 27/33/47
f 27/33/47 19/25/46 28/34/48
f 5/3/49 9/22/50 29/35/51
f 29/35/51 9/22/50 30/36/52
f 24/30/53 23/29/54 31/37/55
f 31/37/55 23/29/54 32/38/56
