# This file uses centimeters as units for non-parametric coordinates.

mtllib RGB_Track.mtl
v 3.141367 -0.712622 4.265509
v 3.141367 -0.712622 1.421836
v 3.141367 -0.712622 -1.421836
v 3.141367 -0.712622 -4.265509
v 3.141367 -0.204520 4.265509
v 3.141367 -0.204520 1.421836
v 3.141367 -0.204520 -1.421836
v 3.141367 -0.204520 -4.265509
v -24.604171 -0.204520 4.265509
v -24.604171 -0.204520 1.421836
v -24.604171 -0.204520 -1.421836
v -24.604171 -0.204520 -4.265509
v -24.604171 -0.712622 4.265509
v -24.604171 -0.712622 1.421836
v -24.604171 -0.712622 -1.421836
v -24.604171 -0.712622 -4.265509
v -24.604171 0.879239 6.953317
v 3.141367 0.879239 6.953317
v 3.174190 0.879233 6.715737
v -24.636993 0.879233 6.715737
v -24.604171 0.879317 -6.953319
v 3.141369 0.879317 -6.953319
v -24.636985 0.879222 -6.715735
v 3.174190 0.879222 -6.715735
v -19.464919 -1.422636 2.685324
v -19.464919 -1.422636 0.895108
v -1.997885 -1.422636 0.895108
v -1.997885 -1.422636 2.685324
v -19.464919 -1.422636 0.895108
v -19.464919 -1.422636 -0.895108
v -1.997885 -1.422636 -0.895108
v -1.997885 -1.422636 0.895108
v -19.464919 -1.422636 -0.895108
v -19.464919 -1.422636 -2.685324
v -1.997885 -1.422636 -2.685324
v -1.997885 -1.422636 -0.895108
v 3.141367 -0.204520 1.506666
v -24.604171 -0.204520 1.506666
v -24.604171 -0.712622 1.506666
v -19.464919 -1.422636 0.948512
v -1.997885 -1.422636 0.948512
v 3.141367 -0.712622 1.506666
v 3.141367 -0.204520 -1.504779
v -24.604171 -0.204520 -1.504779
v -24.604171 -0.712622 -1.504779
v -19.464920 -1.422636 -0.947324
v -1.997883 -1.422636 -0.947324
v 3.141367 -0.712622 -1.504779
v 3.141367 -0.098936 -1.421836
v 3.141367 -0.098936 -1.504779
v -24.604171 -0.098936 -1.504779
v -24.604171 -0.098936 -1.421836
v 3.141367 -0.098936 1.506666
v 3.141367 -0.098936 1.421836
v -24.604171 -0.098936 1.421836
v -24.604171 -0.098936 1.506666
vt 0.375000 0.000000
vt 0.458333 0.000000
vt 0.541667 0.000000
vt 0.625000 0.000000
vt 0.375000 0.250000
vt 0.458333 0.250000
vt 0.541667 0.250000
vt 0.625000 0.250000
vt 0.375000 0.500000
vt 0.458333 0.500000
vt 0.541667 0.500000
vt 0.625000 0.500000
vt 0.375000 0.750000
vt 0.458333 0.750000
vt 0.541667 0.750000
vt 0.625000 0.750000
vt 0.375000 1.000000
vt 0.458333 1.000000
vt 0.541667 1.000000
vt 0.625000 1.000000
vt 0.875000 0.000000
vt 0.875000 0.250000
vt 0.125000 0.000000
vt 0.125000 0.250000
vt 0.125000 0.000000
vt 0.375000 0.000000
vt 0.375000 0.250000
vt 0.125000 0.250000
vt 0.625000 0.000000
vt 0.875000 0.000000
vt 0.875000 0.250000
vt 0.625000 0.250000
vt 0.375000 0.750000
vt 0.458333 0.750000
vt 0.458333 1.000000
vt 0.375000 1.000000
vt 0.458333 0.750000
vt 0.541667 0.750000
vt 0.541667 1.000000
vt 0.458333 1.000000
vt 0.541667 0.750000
vt 0.625000 0.750000
vt 0.625000 1.000000
vt 0.541667 1.000000
vt 0.455847 0.250000
vt 0.455847 0.500000
vt 0.455847 0.750000
vt 0.455847 0.750000
vt 0.455847 1.000000
vt 0.455847 0.000000
vt 0.455847 1.000000
vt 0.544097 0.250000
vt 0.544097 0.500000
vt 0.544097 0.750000
vt 0.544097 0.750000
vt 0.544097 1.000000
vt 0.544097 0.000000
vt 0.544097 1.000000
vt 0.541667 0.250000
vt 0.544097 0.250000
vt 0.544097 0.500000
vt 0.541667 0.500000
vt 0.455847 0.250000
vt 0.458333 0.250000
vt 0.458333 0.500000
vt 0.455847 0.500000
vn 1.000000 0.000000 0.000000
vn 1.000000 0.000000 0.000000
vn 1.000000 0.000000 0.000000
vn 1.000000 0.000000 0.000000
vn 1.000000 0.000000 0.000000
vn 1.000000 0.000000 0.000000
vn 1.000000 0.000000 0.000000
vn 1.000000 0.000000 0.000000
vn 1.000000 0.000000 0.000000
vn 1.000000 0.000000 0.000000
vn 0.000000 1.000000 0.000000
vn 0.000000 1.000000 0.000000
vn 0.000000 1.000000 0.000000
vn 0.000000 1.000000 0.000000
vn 0.000000 1.000000 0.000000
vn 0.000000 1.000000 0.000000
vn 0.000000 1.000000 0.000000
vn 0.000000 1.000000 0.000000
vn 0.000000 1.000000 0.000000
vn 0.000000 1.000000 0.000000
vn 0.000000 1.000000 0.000000
vn 0.000000 1.000000 0.000000
vn -1.000000 0.000000 -0.000000
vn -1.000000 0.000000 -0.000000
vn -1.000000 0.000000 -0.000000
vn -1.000000 0.000000 -0.000000
vn -1.000000 0.000000 -0.000000
vn -1.000000 0.000000 -0.000000
vn -1.000000 0.000000 -0.000000
vn -1.000000 0.000000 -0.000000
vn -1.000000 0.000000 -0.000000
vn -1.000000 0.000000 -0.000000
vn -0.000000 1.000000 0.000397
vn -0.000000 1.000000 0.000397
vn -0.000000 1.000000 0.000397
vn -0.000000 1.000000 0.000397
vn 0.000000 1.000000 -0.000024
vn 0.000000 1.000000 -0.000024
vn 0.000000 1.000000 -0.000024
vn 0.000000 1.000000 -0.000024
vn -0.000000 -0.860420 0.509586
vn -0.000000 -0.860420 0.509586
vn -0.000000 -0.860420 0.509586
vn -0.000000 -0.860420 0.509586
vn 1.000000 0.000000 0.000000
vn 1.000000 -0.000276 0.000111
vn 0.953804 -0.278632 0.112347
vn 0.938028 -0.321415 0.129597
vn 0.000000 0.914536 -0.404506
vn 0.000000 0.914536 -0.404506
vn 0.000000 0.914536 -0.404505
vn 0.000000 0.914536 -0.404505
vn -1.000000 0.000000 -0.000001
vn -0.953804 -0.278633 0.112346
vn -1.000000 -0.000276 0.000110
vn -0.938028 -0.321415 0.129596
vn 0.000000 -0.860409 -0.509604
vn 0.000000 -0.860409 -0.509604
vn 0.000000 -0.860409 -0.509604
vn 0.000000 -0.860409 -0.509604
vn -1.000000 0.000000 -0.000000
vn -1.000000 -0.000276 -0.000111
vn -0.953818 -0.278588 -0.112334
vn -0.937962 -0.321579 -0.129670
vn -0.000000 0.914537 0.404502
vn -0.000000 0.914537 0.404502
vn -0.000000 0.914537 0.404502
vn -0.000000 0.914537 0.404502
vn 1.000000 0.000000 0.000001
vn 0.953801 -0.278640 -0.112354
vn 1.000000 -0.000276 -0.000110
vn 0.937939 -0.321638 -0.129692
vn -0.136855 -0.990591 -0.000000
vn -0.136855 -0.990591 -0.000000
vn -0.136855 -0.990591 -0.000000
vn -0.136855 -0.990591 -0.000000
vn 0.000000 0.595806 -0.803128
vn 0.000000 0.595806 -0.803128
vn 0.000000 0.595806 -0.803128
vn 0.000000 0.595806 -0.803128
vn 0.136855 -0.990591 0.000000
vn 0.136855 -0.990591 0.000000
vn 0.136855 -0.990591 0.000000
vn 0.136855 -0.990591 0.000000
vn -0.000000 -0.912152 0.409851
vn -0.000000 -0.912152 0.409851
vn -0.000000 -0.912152 0.409851
vn -0.000000 -0.912152 0.409851
vn -0.136855 -0.990591 -0.000000
vn -0.136855 -0.990591 -0.000000
vn -0.136855 -0.990591 -0.000000
vn -0.136855 -0.990591 -0.000000
vn 0.000000 -0.595806 -0.803128
vn 0.000000 -0.595806 -0.803128
vn 0.000000 -0.595806 -0.803128
vn 0.000000 -0.595806 -0.803128
vn 0.136855 -0.990591 0.000000
vn 0.136855 -0.990591 0.000000
vn 0.136855 -0.990591 0.000000
vn 0.136855 -0.990591 0.000000
vn -0.000000 -0.595806 0.803128
vn -0.000000 -0.595806 0.803128
vn -0.000000 -0.595806 0.803128
vn -0.000000 -0.595806 0.803128
vn -0.136855 -0.990591 -0.000000
vn -0.136855 -0.990591 0.000000
vn -0.136855 -0.990591 0.000000
vn -0.136856 -0.990591 0.000012
vn 0.000000 -0.912152 -0.409851
vn 0.000000 -0.912152 -0.409851
vn 0.000000 -0.912152 -0.409851
vn 0.000000 -0.912152 -0.409851
vn 0.136855 -0.990591 -0.000000
vn 0.136855 -0.990591 0.000000
vn 0.136855 -0.990591 0.000000
vn 0.136855 -0.990591 0.000012
vn -0.000000 0.595806 0.803128
vn -0.000000 0.595806 0.803128
vn -0.000000 0.595806 0.803128
vn -0.000000 0.595806 0.803128
vn 0.000000 1.000000 0.000000
vn 0.000000 1.000000 0.000000
vn 0.000000 1.000000 0.000000
vn 0.000000 1.000000 0.000000
vn -0.136855 -0.990591 -0.000000
vn -0.136855 -0.990591 -0.000000
vn 0.136855 -0.990591 0.000000
vn 0.136855 -0.990591 0.000000
vn 0.000000 1.000000 0.000000
vn 0.000000 1.000000 0.000000
vn 0.000000 1.000000 0.000000
vn 0.000000 1.000000 0.000000
vn -1.000000 0.000000 -0.000000
vn -1.000000 0.000000 -0.000000
vn -0.136855 -0.990591 -0.000000
vn -0.136855 -0.990591 -0.000000
vn 0.136855 -0.990591 0.000000
vn 0.136855 -0.990591 -0.000000
vn 1.000000 0.000000 0.000000
vn 1.000000 0.000000 0.000000
vn 1.000000 0.000000 0.000000
vn 1.000000 0.000000 0.000000
vn 1.000000 0.000000 0.000000
vn 1.000000 0.000000 0.000000
vn 0.000000 0.000000 -1.000000
vn 0.000000 0.000000 -1.000000
vn 0.000000 0.000000 -1.000000
vn 0.000000 0.000000 -1.000000
vn -1.000000 0.000000 -0.000000
vn -1.000000 0.000000 -0.000000
vn -1.000000 0.000000 -0.000000
vn -1.000000 0.000000 -0.000000
vn -0.000000 0.000000 1.000000
vn -0.000000 0.000000 1.000000
vn -0.000000 0.000000 1.000000
vn -0.000000 0.000000 1.000000
vn 1.000000 0.000000 0.000000
vn 1.000000 0.000000 0.000000
vn 1.000000 0.000000 0.000000
vn 1.000000 0.000000 0.000000
vn 0.000000 0.000000 -1.000000
vn 0.000000 0.000000 -1.000000
vn 0.000000 0.000000 -1.000000
vn 0.000000 0.000000 -1.000000
vn -1.000000 0.000000 -0.000000
vn -1.000000 0.000000 -0.000000
vn -1.000000 0.000000 -0.000000
vn -1.000000 0.000000 -0.000000
vn -0.000000 0.000000 1.000000
vn -0.000000 0.000000 1.000000
vn -0.000000 0.000000 1.000000
vn -0.000000 0.000000 1.000000
vn 0.000000 -1.000000 0.000000
vn 0.000000 -1.000000 0.000000
vn 0.000000 -1.000000 0.000000
vn 0.000000 -1.000000 0.000000
vn 0.000000 -1.000000 0.000000
vn 0.000000 -1.000000 0.000000
vn 0.000000 -1.000000 0.000000
vn 0.000000 -1.000000 0.000000
vn 0.000000 -1.000000 0.000000
vn 0.000000 -1.000000 0.000000
vn 0.000000 -1.000000 0.000000
vn 0.000000 -1.000000 0.000000
vn 0.000000 -1.000000 0.000000
vn 0.000000 -1.000000 0.000000
vn 0.000000 -1.000000 0.000000
vn 0.000000 -1.000000 0.000000
usemtl blinn2SG
f 1/1/1 42/50/2 5/5/3
f 5/5/3 42/50/2 37/45/4
f 2/2/5 3/3/6 6/6/7
f 6/6/7 3/3/6 7/7/8
f 3/3/6 48/57/9 7/7/8
f 7/7/8 48/57/9 43/52/10
usemtl lambert4SG
f 5/5/11 37/45/12 9/9/13
f 9/9/13 37/45/12 38/46/14
usemtl lambert3SG
f 6/6/15 7/7/16 10/10/17
f 10/10/17 7/7/16 11/11/18
usemtl blinn2SG
f 49/59/19 50/60/20 52/62/21
f 52/62/21 50/60/20 51/61/22
f 9/9/23 38/46/24 13/13/25
f 13/13/25 38/46/24 39/47/26
f 10/10/27 11/11/28 14/14/29
f 14/14/29 11/11/28 15/15/30
f 11/11/28 44/53/31 15/15/30
f 15/15/30 44/53/31 45/54/32
f 22/29/33 21/30/34 24/32/35
f 24/32/35 21/30/34 23/31/36
f 17/25/37 18/26/38 20/28/39
f 20/28/39 18/26/38 19/27/40
f 13/23/41 1/1/42 17/25/43
f 17/25/43 1/1/42 18/26/44
f 1/1/45 5/5/46 18/26/47
f 18/26/47 5/5/46 19/27/48
f 5/5/49 9/24/50 19/27/51
f 19/27/51 9/24/50 20/28/52
f 13/23/53 17/25/54 9/24/55
f 9/24/55 17/25/54 20/28/56
f 4/4/57 16/21/58 22/29/59
f 22/29/59 16/21/58 21/30/60
f 16/21/61 12/22/62 21/30/63
f 21/30/63 12/22/62 23/31/64
f 12/22/65 8/8/66 23/31/67
f 23/31/67 8/8/66 24/32/68
f 4/4/69 22/29/70 8/8/71
f 8/8/71 22/29/70 24/32/72
f 13/13/73 39/47/74 25/33/75
f 25/33/75 39/47/74 40/48/76
f 14/14/77 2/18/78 26/34/79
f 26/34/79 2/18/78 27/35/80
f 1/17/81 28/36/82 42/51/83
f 42/51/83 28/36/82 41/49/84
f 1/17/85 13/13/86 28/36/87
f 28/36/87 13/13/86 25/33/88
f 14/14/89 15/15/90 29/37/91
f 29/37/91 15/15/90 30/38/92
f 15/15/93 3/19/94 30/38/95
f 30/38/95 3/19/94 31/39/96
f 3/19/97 2/18/98 31/39/99
f 31/39/99 2/18/98 32/40/100
f 2/18/101 14/14/102 32/40/103
f 32/40/103 14/14/102 29/37/104
f 45/54/105 46/55/106 15/15/107
f 15/15/107 46/55/106 33/41/108
f 16/16/109 4/20/110 34/42/111
f 34/42/111 4/20/110 35/43/112
f 48/58/113 3/19/114 47/56/115
f 47/56/115 3/19/114 36/44/116
f 3/19/117 15/15/118 36/44/119
f 36/44/119 15/15/118 33/41/120
f 53/63/121 54/64/122 56/66/123
f 56/66/123 54/64/122 55/65/124
f 39/47/26 38/46/24 14/14/29
f 14/14/29 38/46/24 10/10/27
f 39/47/74 14/14/125 40/48/76
f 40/48/76 14/14/125 26/34/126
f 42/51/83 41/49/84 2/18/127
f 2/18/127 41/49/84 27/35/128
f 37/45/4 42/50/2 6/6/7
f 6/6/7 42/50/2 2/2/5
usemtl lambert2SG
f 43/52/129 8/8/130 44/53/131
f 44/53/131 8/8/130 12/12/132
usemtl blinn2SG
f 45/54/32 44/53/31 16/16/133
f 16/16/133 44/53/31 12/12/134
f 46/55/106 45/54/105 34/42/135
f 34/42/135 45/54/105 16/16/136
f 4/20/137 48/58/113 35/43/138
f 35/43/138 48/58/113 47/56/115
f 43/52/10 48/57/9 8/8/139
f 8/8/139 48/57/9 4/4/140
f 7/7/141 43/52/142 49/59/143
f 49/59/143 43/52/142 50/60/144
f 43/52/145 44/53/146 50/60/147
f 50/60/147 44/53/146 51/61/148
f 44/53/149 11/11/150 51/61/151
f 51/61/151 11/11/150 52/62/152
f 11/11/153 7/7/154 52/62/155
f 52/62/155 7/7/154 49/59/156
f 37/45/157 6/6/158 53/63/159
f 53/63/159 6/6/158 54/64/160
f 6/6/161 10/10/162 54/64/163
f 54/64/163 10/10/162 55/65/164
f 10/10/165 38/46/166 55/65/167
f 55/65/167 38/46/166 56/66/168
f 38/46/169 37/45/170 56/66/171
f 56/66/171 37/45/170 53/63/172
f 26/34/173 27/35/174 40/48/175
f 27/35/174 41/49/176 40/48/175
f 40/48/175 41/49/176 25/33/177
f 41/49/176 28/36/178 25/33/177
f 30/38/179 31/39/180 29/37/181
f 29/37/181 31/39/180 32/40/182
f 34/42/183 35/43/184 46/55/185
f 36/44/186 33/41/187 47/56/188
f 33/41/187 46/55/185 47/56/188
f 46/55/185 35/43/184 47/56/188
v -23.874994 4.107288 -4.107288
v -23.874994 5.808582 0.000000
v -23.874994 4.107288 4.107288
v -23.874994 0.329367 5.808582
v -23.874994 0.290321 -5.808583
v -23.374994 4.460841 -4.460841
v -23.374994 6.308582 0.000000
v -23.374994 4.460841 4.460841
v -23.374994 0.530678 6.308582
v -23.374994 0.610256 -6.308583
v -23.874994 4.814394 -4.814394
v -23.874994 6.808582 -0.000000
v -23.874994 4.814394 4.814394
v -23.874994 0.823847 6.740533
v -23.874994 0.796816 -6.706908
v -24.374994 4.460841 -4.460841
v -24.374994 6.308582 -0.000000
v -24.374994 4.460841 4.460841
v -24.374994 0.530678 6.308582
v -24.374994 0.610256 -6.308583
vt 0.000000 1.000000
vt 0.125000 1.000000
vt 0.250000 1.000000
vt 0.375000 1.000000
vt 0.875000 1.000000
vt 1.000000 1.000000
vt 0.000000 0.750000
vt 0.125000 0.750000
vt 0.250000 0.750000
vt 0.375000 0.750000
vt 0.875000 0.750000
vt 1.000000 0.750000
vt 0.000000 0.500000
vt 0.125000 0.500000
vt 0.250000 0.500000
vt 0.375000 0.500000
vt 0.875000 0.500000
vt 1.000000 0.500000
vt 0.000000 0.250000
vt 0.125000 0.250000
vt 0.250000 0.250000
vt 0.375000 0.250000
vt 0.875000 0.250000
vt 1.000000 0.250000
vt 0.000000 0.000000
vt 0.125000 0.000000
vt 0.250000 0.000000
vt 0.375000 0.000000
vt 0.875000 0.000000
vt 1.000000 0.000000
vn 0.678598 -0.678599 0.281085
vn 0.678598 -0.678599 0.281085
vn 0.678598 -0.678599 0.281085
vn 0.678598 -0.678599 0.281085
vn 0.678598 -0.678599 -0.281085
vn 0.678598 -0.678599 -0.281085
vn 0.678598 -0.678599 -0.281085
vn 0.678598 -0.678599 -0.281085
vn 0.709701 -0.294643 -0.639930
vn 0.709701 -0.294643 -0.639930
vn 0.709701 -0.294643 -0.639930
vn 0.709701 -0.294643 -0.639930
vn 0.726584 -0.288607 0.623524
vn 0.726584 -0.288607 0.623524
vn 0.726584 -0.288607 0.623524
vn 0.726584 -0.288607 0.623524
vn 0.678598 0.678598 -0.281085
vn 0.678598 0.678598 -0.281085
vn 0.678598 0.678598 -0.281085
vn 0.678598 0.678598 -0.281085
vn 0.678598 0.678598 0.281085
vn 0.678598 0.678598 0.281085
vn 0.678598 0.678598 0.281085
vn 0.678598 0.678598 0.281085
vn 0.702575 0.306085 0.642418
vn 0.702575 0.306085 0.642418
vn 0.702575 0.306085 0.642418
vn 0.702575 0.306085 0.642418
vn 0.673423 0.317383 -0.667660
vn 0.673423 0.317383 -0.667660
vn 0.673423 0.317383 -0.667660
vn 0.673423 0.317383 -0.667660
vn -0.678598 0.678598 -0.281085
vn -0.678598 0.678598 -0.281085
vn -0.678598 0.678598 -0.281085
vn -0.678598 0.678598 -0.281085
vn -0.678598 0.678598 0.281085
vn -0.678598 0.678598 0.281085
vn -0.678598 0.678598 0.281085
vn -0.678598 0.678598 0.281085
vn -0.702575 0.306084 0.642418
vn -0.702575 0.306085 0.642418
vn -0.702575 0.306085 0.642418
vn -0.702575 0.306085 0.642418
vn -0.673423 0.317383 -0.667660
vn -0.673423 0.317383 -0.667660
vn -0.673423 0.317383 -0.667660
vn -0.673423 0.317383 -0.667660
vn -0.678598 -0.678599 0.281085
vn -0.678598 -0.678599 0.281085
vn -0.678598 -0.678599 0.281085
vn -0.678598 -0.678599 0.281085
vn -0.678598 -0.678599 -0.281085
vn -0.678598 -0.678599 -0.281085
vn -0.678598 -0.678599 -0.281085
vn -0.678598 -0.678599 -0.281085
vn -0.709701 -0.294643 -0.639930
vn -0.709701 -0.294643 -0.639930
vn -0.709701 -0.294643 -0.639930
vn -0.709701 -0.294643 -0.639930
vn -0.726584 -0.288607 0.623524
vn -0.726584 -0.288607 0.623524
vn -0.726584 -0.288607 0.623524
vn -0.726584 -0.288607 0.623524
usemtl phongE1SG
f 58/68/189 57/67/190 62/73/191 63/74/192
f 59/69/193 58/68/194 63/74/195 64/75/196
f 60/70/197 59/69/198 64/75/199 65/76/200
f 57/72/201 61/71/202 66/77/203 62/78/204
f 63/74/205 62/73/206 67/79/207 68/80/208
f 64/75/209 63/74/210 68/80/211 69/81/212
f 65/76/213 64/75/214 69/81/215 70/82/216
f 62/78/217 66/77/218 71/83/219 67/84/220
f 68/80/221 67/79/222 72/85/223 73/86/224
f 69/81/225 68/80/226 73/86/227 74/87/228
f 70/82/229 69/81/230 74/87/231 75/88/232
f 67/84/233 71/83/234 76/89/235 72/90/236
f 73/86/237 72/85/238 57/91/239 58/92/240
f 74/87/241 73/86/242 58/92/243 59/93/244
f 75/88/245 74/87/246 59/93/247 60/94/248
f 72/90/249 76/89/250 61/95/251 57/96/252
